<?xml version="1.0" encoding="UTF-8"?>
<svg xmlns="http://www.w3.org/2000/svg" xmlns:xlink="http://www.w3.org/1999/xlink" width="13px" height="15px" viewBox="0 0 13 15" version="1.1">
<g id="surface1">
<path style=" stroke:none;fill-rule:nonzero;fill:rgb(0%,0%,0%);fill-opacity:1;" d="M 12.070312 0.9375 L 0.925781 0.9375 C 0.414062 0.9375 0 1.363281 0 1.882812 L 0 13.117188 C 0 13.636719 0.414062 14.0625 0.925781 14.0625 L 12.070312 14.0625 C 12.582031 14.0625 13 13.636719 13 13.117188 L 13 1.882812 C 13 1.363281 12.582031 0.9375 12.070312 0.9375 Z M 3.929688 12.1875 L 2.003906 12.1875 L 2.003906 5.921875 L 3.933594 5.921875 L 3.933594 12.1875 Z M 2.964844 5.070312 C 2.347656 5.070312 1.847656 4.5625 1.847656 3.941406 C 1.847656 3.320312 2.347656 2.8125 2.964844 2.8125 C 3.582031 2.8125 4.082031 3.320312 4.082031 3.941406 C 4.082031 4.5625 3.582031 5.070312 2.964844 5.070312 Z M 11.152344 12.1875 L 9.226562 12.1875 L 9.226562 9.140625 C 9.226562 8.414062 9.210938 7.480469 8.222656 7.480469 C 7.21875 7.480469 7.066406 8.269531 7.066406 9.085938 L 7.066406 12.1875 L 5.140625 12.1875 L 5.140625 5.921875 L 6.988281 5.921875 L 6.988281 6.777344 L 7.011719 6.777344 C 7.273438 6.285156 7.902344 5.769531 8.839844 5.769531 C 10.789062 5.769531 11.152344 7.066406 11.152344 8.753906 Z M 11.152344 12.1875 "/>
</g>
</svg>
